<svg width="25" height="26" viewBox="0 0 25 26" fill="none" xmlns="http://www.w3.org/2000/svg">
<path d="M9.79275 19.28C9.86644 19.2113 9.92554 19.1285 9.96653 19.0365C10.0075 18.9445 10.0296 18.8452 10.0313 18.7445C10.0331 18.6438 10.0146 18.5438 9.97688 18.4504C9.93915 18.357 9.88301 18.2722 9.81179 18.201C9.74057 18.1297 9.65574 18.0736 9.56235 18.0359C9.46896 17.9982 9.36893 17.9796 9.26823 17.9814C9.16753 17.9832 9.06821 18.0052 8.97621 18.0462C8.88422 18.0872 8.80141 18.1463 8.73275 18.22L6.75475 20.197C6.55788 20.3936 6.291 20.5041 6.01275 20.5041C5.7345 20.5041 5.46763 20.3936 5.27075 20.197L4.79275 19.72C4.65058 19.5875 4.46253 19.5154 4.26823 19.5188C4.07393 19.5223 3.88854 19.601 3.75113 19.7384C3.61372 19.8758 3.53501 20.0612 3.53158 20.2555C3.52815 20.4498 3.60027 20.6378 3.73275 20.78L4.20975 21.257C4.68796 21.7351 5.33651 22.0038 6.01275 22.0038C6.68899 22.0038 7.33754 21.7351 7.81575 21.257L9.79275 19.28ZM22.2668 2.754C19.9288 0.416003 16.1318 0.408003 13.7918 2.744L1.75375 14.764C-0.588248 17.104 -0.582248 20.905 1.75775 23.246C4.09575 25.584 7.89375 25.592 10.2328 23.256L22.2708 11.236C24.6128 8.896 24.6068 5.094 22.2668 2.754ZM8.29975 10.348L14.6638 16.712L9.17375 22.195C8.32914 23.0353 7.18563 23.5063 5.99418 23.5044C4.80274 23.5025 3.66072 23.028 2.81875 22.185C1.9752 21.3422 1.50082 20.199 1.49988 19.0065C1.49895 17.8141 1.97153 16.6701 2.81375 15.826L8.29975 10.348ZM21.2108 10.174L15.7248 15.652L9.36075 9.288L14.8508 3.805C15.6955 2.96491 16.839 2.49417 18.0303 2.49604C19.2217 2.49792 20.3637 2.97225 21.2058 3.815C22.0493 4.65779 22.5237 5.80105 22.5246 6.99347C22.5256 8.18589 22.053 9.32989 21.2108 10.174Z" fill="black"/>
</svg>
