<svg width="47" height="47" viewBox="0 0 47 47" fill="none" xmlns="http://www.w3.org/2000/svg">
<path d="M24.05 34.4569C30.4009 34.4569 35.5606 29.5858 35.7802 23.5C35.5606 17.4142 30.4009 12.5431 24.05 12.5431C17.6999 12.5431 12.5387 17.4142 12.322 23.5C12.5379 29.5858 17.6991 34.4569 24.05 34.4569Z" fill="black"/>
<path d="M24.0508 7.34375C15.1281 7.34375 7.8938 14.5773 7.8938 23.5C7.8938 32.4219 15.1289 39.6562 24.0508 39.6562C32.9727 39.6562 40.207 32.4219 40.207 23.5C40.207 14.5773 32.9727 7.34375 24.0508 7.34375ZM24.05 35.25C17.5604 35.25 12.2993 30.1674 12.2993 23.8958C12.2993 23.7622 12.3177 23.6322 12.3221 23.5C12.3177 23.3678 12.2993 23.2371 12.2993 23.1042C12.2993 16.8326 17.5611 11.75 24.05 11.75C30.5397 11.75 35.8 16.8326 35.8 23.1042C35.8 23.2371 35.7846 23.3678 35.781 23.5C35.7854 23.6322 35.8 23.7622 35.8 23.8958C35.7993 30.1674 30.5397 35.25 24.05 35.25Z" fill="black"/>
<mask id="path-3-inside-1_7_292" fill="white">
<path d="M2.55643 5.44979C2.73268 4.75874 3.08151 5.44171 3.08151 5.44171C3.08151 5.44171 3.20341 12.5945 3.99654 12.6724C4.78966 12.7502 4.17866 5.31246 5.11719 5.16999C5.98963 5.0312 5.49173 12.7906 6.28632 12.712C7.07798 12.6283 7.21163 5.47843 7.21163 5.47843C7.21163 5.47843 7.56413 4.7962 7.73818 5.4821C9.88843 13.9348 8.14869 17.39 8.14869 17.39C8.14869 17.39 7.85494 18.1163 7.15729 18.12C7.09193 18.1163 7.14113 38.1948 7.13673 40.8944C7.1382 42.2067 3.09766 42.1663 3.09987 40.8599C3.1028 38.1603 3.18138 18.084 3.11823 18.0854C2.41837 18.0854 2.12535 17.3599 2.12535 17.3599C2.12535 17.3599 0.392226 13.9069 2.55643 5.44979Z"/>
</mask>
<path d="M3.08151 5.44171L4.08136 5.42467L4.07742 5.19311L3.97207 4.98685L3.08151 5.44171ZM5.11719 5.16999L5.26728 6.15869L5.27431 6.15757L5.11719 5.16999ZM6.28632 12.712L6.38473 13.7072L6.39148 13.7065L6.28632 12.712ZM7.21163 5.47843L6.32321 5.0194L6.21617 5.22658L6.21181 5.45974L7.21163 5.47843ZM7.73818 5.4821L6.7689 5.72805L6.76904 5.72864L7.73818 5.4821ZM8.14869 17.39L7.25552 16.9403L7.23705 16.977L7.22165 17.015L8.14869 17.39ZM7.15729 18.12L7.1012 19.1184L7.13185 19.1201L7.16255 19.1199L7.15729 18.12ZM7.13673 40.8944L6.13672 40.8928L6.13673 40.8955L7.13673 40.8944ZM3.09987 40.8599L4.09987 40.8616L4.09987 40.861L3.09987 40.8599ZM3.11823 18.0854V19.0854H3.12985L3.14148 19.0852L3.11823 18.0854ZM2.12535 17.3599L3.05259 16.9854L3.03735 16.9477L3.01909 16.9113L2.12535 17.3599ZM3.52541 5.69693C3.53456 5.66103 3.53273 5.68459 3.50345 5.73723C3.4756 5.78727 3.39142 5.92003 3.21237 6.02328C3.11988 6.07661 3.01311 6.11524 2.89711 6.13174C2.78234 6.14806 2.67729 6.14011 2.58884 6.121C2.42187 6.08492 2.3152 6.01001 2.27384 5.97807C2.22765 5.94239 2.20295 5.91333 2.19784 5.90728C2.1907 5.89882 2.18914 5.89591 2.19198 5.90016C2.19425 5.90357 2.19644 5.90725 2.19755 5.90919C2.19794 5.90987 2.19771 5.90948 2.19672 5.90764C2.19621 5.9067 2.19549 5.90535 2.19454 5.90354C2.19407 5.90263 2.19353 5.9016 2.19293 5.90044C2.19263 5.89986 2.19232 5.89925 2.19199 5.8986C2.19182 5.89828 2.19165 5.89795 2.19148 5.89761C2.19139 5.89744 2.19126 5.89718 2.19121 5.8971C2.19108 5.89683 2.19094 5.89657 3.08151 5.44171C3.97207 4.98685 3.97193 4.98658 3.97179 4.98631C3.97174 4.98621 3.9716 4.98594 3.97151 4.98575C3.97131 4.98537 3.97111 4.98497 3.9709 4.98457C3.97049 4.98376 3.97004 4.9829 3.96958 4.982C3.96864 4.98019 3.9676 4.97819 3.96646 4.97601C3.96418 4.97165 3.96148 4.96655 3.95838 4.96078C3.95219 4.94927 3.94429 4.93488 3.9348 4.91824C3.91614 4.88553 3.88971 4.84125 3.85652 4.79143C3.80302 4.7111 3.68162 4.53828 3.49628 4.39515C3.32503 4.26289 2.80164 3.95143 2.21329 4.2907C1.7756 4.54309 1.63946 4.99871 1.58745 5.20265L3.52541 5.69693ZM3.08151 5.44171C2.08165 5.45875 2.08165 5.45883 2.08166 5.45894C2.08166 5.45901 2.08166 5.45915 2.08166 5.4593C2.08167 5.45959 2.08167 5.45998 2.08168 5.46049C2.0817 5.4615 2.08173 5.46295 2.08176 5.46481C2.08183 5.46855 2.08193 5.47398 2.08206 5.48106C2.08232 5.49521 2.08273 5.51593 2.08328 5.54279C2.0844 5.5965 2.08613 5.67478 2.08861 5.77415C2.09356 5.97283 2.10152 6.25608 2.11358 6.59599C2.13764 7.27467 2.17819 8.18432 2.24419 9.09975C2.30964 10.0076 2.40217 10.9519 2.53485 11.6873C2.59986 12.0476 2.6832 12.4089 2.79794 12.7029C2.85399 12.8465 2.93828 13.0292 3.06882 13.1956C3.19185 13.3524 3.46058 13.6246 3.89886 13.6676L4.09422 11.6771C4.43336 11.7104 4.60819 11.9176 4.64229 11.961C4.68392 12.0141 4.68426 12.0352 4.66108 11.9758C4.61734 11.8637 4.56103 11.6534 4.50308 11.3322C4.38984 10.7046 4.30318 9.84607 4.23901 8.95594C4.17539 8.07344 4.1359 7.19002 4.11232 6.52512C4.10055 6.19323 4.09279 5.91706 4.08798 5.72427C4.08558 5.6279 4.08391 5.55243 4.08286 5.50133C4.08233 5.47578 4.08195 5.45633 4.0817 5.44341C4.08158 5.43695 4.08149 5.43212 4.08144 5.42898C4.08141 5.42741 4.08139 5.42626 4.08138 5.42554C4.08137 5.42518 4.08137 5.42492 4.08136 5.42478C4.08136 5.42471 4.08136 5.42468 4.08136 5.42464C4.08136 5.42464 4.08136 5.42467 3.08151 5.44171ZM3.89886 13.6676C4.40767 13.7175 4.75279 13.4286 4.91696 13.2189C5.06672 13.0276 5.14487 12.8164 5.18878 12.6752C5.28141 12.3774 5.33366 12.0086 5.36929 11.6526C5.44234 10.9227 5.47051 9.9538 5.50176 9.03789C5.53397 8.09366 5.56952 7.19875 5.65037 6.53402C5.69162 6.1948 5.73802 5.97707 5.77764 5.86199C5.79811 5.80253 5.79826 5.82643 5.7552 5.88317C5.71009 5.9426 5.55543 6.11492 5.26727 6.15867L4.96711 4.18132C4.56164 4.24287 4.30177 4.49 4.16212 4.67399C4.02451 4.85529 3.94077 5.05352 3.88658 5.21092C3.77688 5.52956 3.71083 5.91567 3.665 6.29256C3.57166 7.06004 3.53442 8.04642 3.50292 8.9697C3.47046 9.92131 3.44401 10.8061 3.37923 11.4534C3.34594 11.786 3.30847 11.9866 3.27904 12.0812C3.26192 12.1362 3.27095 12.077 3.34207 11.9861C3.4276 11.8769 3.68454 11.6369 4.09422 11.6771L3.89886 13.6676ZM5.27431 6.15757C4.9006 6.21703 4.6334 6.02479 4.52359 5.90333C4.43937 5.81017 4.42555 5.7436 4.44427 5.79569C4.47649 5.88532 4.52141 6.08529 4.56393 6.42508C4.6463 7.0834 4.68942 7.99361 4.73191 8.96225C4.77319 9.90325 4.81393 10.9016 4.89713 11.6567C4.93776 12.0255 4.99486 12.4023 5.08961 12.7042C5.13447 12.8472 5.21249 13.057 5.35807 13.247C5.51243 13.4484 5.85819 13.7592 6.38473 13.7072L6.18791 11.7169C6.61513 11.6746 6.87166 11.934 6.94559 12.0305C7.01074 12.1155 7.01713 12.1668 6.99786 12.1054C6.96433 11.9986 6.92316 11.7831 6.8851 11.4377C6.81091 10.7644 6.77261 9.84628 6.72999 8.8746C6.68858 7.93056 6.64293 6.93185 6.54845 6.17678C6.50254 5.80987 6.43703 5.42702 6.32638 5.11919C6.27367 4.97254 6.18031 4.75357 6.00714 4.56203C5.80839 4.3422 5.44284 4.10561 4.96008 4.18241L5.27431 6.15757ZM6.39148 13.7065C6.82772 13.6603 7.09399 13.3879 7.21546 13.2323C7.34495 13.0664 7.42891 12.8843 7.48495 12.7407C7.59964 12.4468 7.68331 12.0857 7.74879 11.7251C7.88239 10.9894 7.97631 10.0451 8.04315 9.13726C8.11054 8.22187 8.15254 7.31244 8.17769 6.63396C8.19029 6.29415 8.19871 6.01099 8.20399 5.81239C8.20663 5.71306 8.20849 5.63481 8.20969 5.58112C8.21029 5.55427 8.21073 5.53356 8.21101 5.51941C8.21116 5.51234 8.21127 5.50691 8.21134 5.50318C8.21138 5.50131 8.2114 5.49987 8.21142 5.49886C8.21143 5.49835 8.21144 5.49795 8.21145 5.49766C8.21145 5.49752 8.21145 5.49738 8.21145 5.49731C8.21146 5.4972 8.21146 5.49712 7.21163 5.47843C6.21181 5.45974 6.21181 5.45971 6.21181 5.45971C6.21181 5.45975 6.21181 5.45978 6.2118 5.45985C6.2118 5.45999 6.2118 5.46025 6.21179 5.46061C6.21178 5.46133 6.21175 5.46248 6.21172 5.46405C6.21166 5.46719 6.21157 5.47201 6.21143 5.47847C6.21117 5.49139 6.21076 5.51084 6.21019 5.53638C6.20904 5.58746 6.20726 5.6629 6.2047 5.75924C6.19957 5.95197 6.19137 6.22806 6.17907 6.55986C6.15442 7.22459 6.11352 8.10786 6.04855 8.99041C5.98301 9.88053 5.89508 10.7394 5.78097 11.3678C5.72259 11.6893 5.66594 11.9005 5.62179 12.0136C5.59842 12.0735 5.59832 12.0536 5.63889 12.0017C5.67142 11.96 5.84388 11.7532 6.18115 11.7176L6.39148 13.7065ZM7.21163 5.47843C8.10005 5.93746 8.09992 5.93773 8.09978 5.93799C8.09974 5.93807 8.0996 5.93833 8.09952 5.9385C8.09934 5.93883 8.09917 5.93916 8.09901 5.93948C8.09867 5.94012 8.09836 5.94073 8.09806 5.9413C8.09746 5.94245 8.09692 5.94346 8.09645 5.94436C8.0955 5.94615 8.09478 5.94748 8.09429 5.9484C8.09331 5.95018 8.09311 5.95052 8.09354 5.94977C8.09473 5.94771 8.09706 5.94384 8.09952 5.94018C8.10253 5.93569 8.10125 5.93818 8.0945 5.94613C8.08974 5.95173 8.06574 5.97986 8.02069 6.01464C7.9805 6.04567 7.87603 6.11923 7.71217 6.15567C7.62533 6.17498 7.52143 6.18377 7.40724 6.16861C7.29169 6.15325 7.18437 6.1158 7.09061 6.06283C6.90853 5.95997 6.82218 5.82562 6.79293 5.77336C6.76246 5.7189 6.76012 5.69345 6.7689 5.72805L8.70746 5.23615C8.65581 5.03261 8.51887 4.57262 8.07435 4.32149C7.48504 3.98857 6.96533 4.30274 6.79859 4.43146C6.61457 4.5735 6.49327 4.74463 6.43934 4.82492C6.40603 4.8745 6.37947 4.91857 6.3607 4.95114C6.35115 4.96771 6.3432 4.98203 6.33698 4.99348C6.33386 4.99922 6.33114 5.00429 6.32885 5.00863C6.3277 5.01079 6.32666 5.01278 6.32572 5.01458C6.32525 5.01547 6.3248 5.01633 6.32439 5.01713C6.32418 5.01753 6.32398 5.01792 6.32378 5.0183C6.32368 5.01849 6.32354 5.01876 6.32349 5.01886C6.32335 5.01913 6.32321 5.0194 7.21163 5.47843ZM6.76904 5.72864C7.82012 9.86044 7.90882 12.7245 7.7535 14.5196C7.67581 15.4176 7.53684 16.051 7.42497 16.4448C7.36899 16.6419 7.31965 16.7796 7.28784 16.861C7.27193 16.9018 7.26038 16.9285 7.25455 16.9415C7.25163 16.9481 7.25014 16.9512 7.25025 16.951C7.2503 16.9508 7.25076 16.9499 7.25163 16.9481C7.25206 16.9472 7.2526 16.9461 7.25325 16.9448C7.25358 16.9442 7.25393 16.9435 7.25431 16.9427C7.2545 16.9423 7.2548 16.9417 7.25489 16.9415C7.25521 16.9409 7.25552 16.9403 8.14869 17.39C9.04187 17.8397 9.0422 17.8391 9.04253 17.8384C9.04265 17.8381 9.043 17.8375 9.04324 17.837C9.04372 17.836 9.04423 17.835 9.04477 17.8339C9.04584 17.8318 9.047 17.8294 9.04827 17.8268C9.05079 17.8216 9.05371 17.8156 9.05699 17.8087C9.06355 17.7949 9.07157 17.7776 9.08087 17.7567C9.09947 17.715 9.1232 17.6593 9.15066 17.589C9.20559 17.4484 9.27536 17.2501 9.34889 16.9912C9.49603 16.4731 9.6576 15.7144 9.74606 14.692C9.92305 12.6463 9.80648 9.55642 8.70731 5.23557L6.76904 5.72864ZM8.14869 17.39C7.22165 17.015 7.2218 17.0147 7.22195 17.0143C7.22199 17.0142 7.22214 17.0138 7.22224 17.0136C7.22243 17.0131 7.22262 17.0126 7.22281 17.0122C7.22319 17.0113 7.22355 17.0104 7.2239 17.0095C7.22459 17.0079 7.22523 17.0063 7.22582 17.0049C7.22699 17.0021 7.22795 16.9999 7.2287 16.9982C7.23018 16.9948 7.23085 16.9934 7.23069 16.9937C7.23031 16.9945 7.22702 17.0014 7.2209 17.0122C7.20751 17.036 7.18787 17.0658 7.16483 17.0919C7.15394 17.1042 7.14456 17.1132 7.13734 17.1192C7.13022 17.1251 7.12673 17.127 7.12728 17.1267C7.12822 17.1262 7.13251 17.124 7.13934 17.1222C7.14259 17.1213 7.14563 17.1207 7.14823 17.1203C7.15084 17.12 7.15221 17.12 7.15203 17.12L7.16255 19.1199C7.89466 19.1161 8.39172 18.7243 8.6644 18.4153C8.802 18.2594 8.89941 18.1074 8.96289 17.9948C8.99521 17.9375 9.02032 17.8876 9.03873 17.8487C9.04797 17.8292 9.05563 17.8122 9.06175 17.7981C9.06482 17.7911 9.06752 17.7848 9.06984 17.7792C9.07101 17.7765 9.07208 17.7739 9.07306 17.7715C9.07355 17.7703 9.07402 17.7692 9.07447 17.7681C9.07469 17.7675 9.07491 17.767 9.07512 17.7665C9.07523 17.7662 9.07538 17.7658 9.07544 17.7657C9.07559 17.7653 9.07574 17.7649 8.14869 17.39ZM7.21338 17.1215C6.93723 17.1444 6.53036 17.3407 6.40238 17.4639C6.3409 17.5421 6.2599 17.678 6.23531 17.7318C6.19617 17.8245 6.18034 17.9024 6.17645 17.9213C6.16513 17.976 6.16061 18.0215 6.15933 18.0343C6.15565 18.0708 6.15374 18.1065 6.15264 18.1293C6.15017 18.1808 6.14823 18.2479 6.14657 18.3236C6.1432 18.4778 6.14033 18.7 6.13786 18.9779C6.13291 19.5352 6.12945 20.3324 6.12712 21.2949C6.12247 23.2205 6.12236 25.8157 6.12415 28.4941C6.12773 33.8543 6.13893 39.5443 6.13673 40.8928L8.13672 40.896C8.13893 39.545 8.12773 33.8459 8.12415 28.4928C8.12236 25.8146 8.12248 23.2221 8.12712 21.2997C8.12944 20.3382 8.13289 19.5462 8.13778 18.9957C8.14023 18.7196 8.14301 18.5081 8.1461 18.3674C8.14767 18.2955 8.14917 18.2497 8.15034 18.2253C8.15107 18.2102 8.15103 18.2171 8.14929 18.2344C8.14897 18.2376 8.14543 18.2758 8.13511 18.3258C8.13171 18.3423 8.11638 18.4184 8.07774 18.5099C8.05341 18.5631 7.97266 18.6985 7.91143 18.7764C7.7837 18.8993 7.3771 19.0955 7.1012 19.1184L7.21338 17.1215ZM6.13673 40.8955C6.13641 40.6084 6.37155 40.5974 6.11625 40.7056C5.90246 40.7961 5.54413 40.8631 5.12729 40.8592C4.71097 40.8554 4.35069 40.7819 4.13361 40.6861C3.87218 40.5707 4.10034 40.5787 4.09987 40.8616L2.09987 40.8582C2.09829 41.7943 2.83069 42.2972 3.3262 42.5159C3.86605 42.7541 4.5154 42.8536 5.10875 42.8591C5.70158 42.8646 6.35297 42.7773 6.8963 42.5472C7.39812 42.3346 8.13778 41.8365 8.13673 40.8933L6.13673 40.8955ZM4.09987 40.861C4.10133 39.5113 4.1217 33.8218 4.13383 28.462C4.13989 25.7837 4.14388 23.1887 4.14241 21.2629C4.14168 20.3004 4.13958 19.5032 4.13567 18.9459C4.13371 18.6679 4.13129 18.4459 4.12827 18.2917C4.12678 18.216 4.12502 18.1493 4.12274 18.0982C4.12172 18.0755 4.11996 18.0406 4.11657 18.0051C4.11538 17.9925 4.11125 17.9488 4.10089 17.8961C4.0973 17.8779 4.08288 17.8034 4.04718 17.7143C4.02473 17.6625 3.95042 17.5306 3.89377 17.4539C3.77319 17.3296 3.37416 17.1187 3.09498 17.0857L3.14148 19.0852C2.86254 19.0522 2.46375 18.8414 2.34342 18.7174C2.28701 18.641 2.21295 18.5096 2.19074 18.4584C2.15552 18.3705 2.14158 18.2978 2.13847 18.282C2.12907 18.2342 2.12587 18.1977 2.12559 18.1948C2.12404 18.1785 2.12406 18.1725 2.12474 18.1877C2.12586 18.2127 2.12724 18.259 2.12865 18.3309C2.13142 18.472 2.13378 18.6838 2.13571 18.9599C2.13958 19.5108 2.14168 20.3029 2.14241 21.2645C2.14388 23.187 2.13989 25.7795 2.13383 28.4575C2.12172 33.8105 2.10134 39.5089 2.09987 40.8588L4.09987 40.861ZM3.11823 17.0854C3.11782 17.0854 3.11903 17.0854 3.12156 17.0858C3.12407 17.0861 3.1271 17.0867 3.13039 17.0875C3.13733 17.0894 3.14188 17.0916 3.14321 17.0923C3.14392 17.0927 3.13055 17.0852 3.10777 17.0595C3.08527 17.0341 3.06602 17.0049 3.05286 16.9816C3.04686 16.971 3.04368 16.9643 3.04337 16.9637C3.04326 16.9634 3.04396 16.9649 3.04547 16.9684C3.04623 16.9701 3.04721 16.9724 3.04839 16.9752C3.04898 16.9766 3.04963 16.9782 3.05033 16.9799C3.05068 16.9807 3.05104 16.9816 3.05142 16.9825C3.05161 16.983 3.0518 16.9835 3.052 16.9839C3.05209 16.9842 3.05224 16.9846 3.05229 16.9847C3.05244 16.985 3.05259 16.9854 2.12535 17.3599C1.19811 17.7343 1.19826 17.7347 1.19842 17.7351C1.19847 17.7352 1.19863 17.7356 1.19873 17.7359C1.19895 17.7364 1.19916 17.7369 1.19939 17.7375C1.19984 17.7386 1.20031 17.7398 1.2008 17.7409C1.20179 17.7433 1.20287 17.7459 1.20403 17.7487C1.20637 17.7543 1.20907 17.7606 1.21215 17.7677C1.2183 17.7818 1.22598 17.7989 1.23524 17.8185C1.2537 17.8575 1.27887 17.9075 1.31128 17.9649C1.37493 18.0776 1.47268 18.2299 1.61091 18.3859C1.88549 18.6957 2.38469 19.0854 3.11823 19.0854V17.0854ZM2.12535 17.3599C3.01909 16.9113 3.01941 16.9119 3.01972 16.9126C3.01982 16.9127 3.02012 16.9134 3.02031 16.9137C3.02069 16.9145 3.02104 16.9152 3.02136 16.9159C3.02201 16.9172 3.02255 16.9183 3.02299 16.9192C3.02387 16.921 3.02432 16.9219 3.02438 16.9221C3.0245 16.9223 3.02303 16.9192 3.02013 16.9127C3.01435 16.8997 3.00287 16.873 2.98705 16.8324C2.95543 16.7511 2.90636 16.6136 2.85077 16.4166C2.73966 16.0229 2.60184 15.3897 2.52574 14.4918C2.3736 12.6967 2.46724 9.83196 3.52521 5.6977L1.58765 5.20187C0.481419 9.52468 0.359514 12.615 0.532886 14.6607C0.619539 15.6831 0.77974 16.4418 0.925965 16.9598C0.999034 17.2187 1.06846 17.417 1.12316 17.5576C1.15051 17.6279 1.17415 17.6837 1.1927 17.7254C1.20197 17.7462 1.20996 17.7636 1.21651 17.7774C1.21978 17.7843 1.22269 17.7903 1.22521 17.7955C1.22648 17.7981 1.22764 17.8005 1.22871 17.8026C1.22924 17.8037 1.22975 17.8047 1.23023 17.8057C1.23048 17.8062 1.23082 17.8069 1.23094 17.8071C1.23128 17.8078 1.23161 17.8085 2.12535 17.3599Z" fill="black" mask="url(#path-3-inside-1_7_292)"/>
<path d="M40.9169 40.9989L40.8908 5.64858C40.8967 5.65005 40.9032 5.65179 40.9104 5.65384C40.9545 5.6665 41.0136 5.68871 41.0867 5.72482C41.2333 5.79717 41.4208 5.91779 41.6356 6.10187C42.0645 6.46932 42.5848 7.07469 43.0887 8.00067C44.0958 9.85164 45.0291 12.9705 45.0313 17.9645L45.0313 17.965C45.0333 19.4604 44.6362 20.1727 44.2385 20.7663C44.1909 20.8374 44.1415 20.9087 44.0913 20.9811C43.7044 21.5399 43.2738 22.1617 43.2754 23.218C43.2768 24.2268 43.2803 28.744 43.2834 33.0094L43.2875 38.748L43.2888 40.594L43.2891 41.001C43.2733 41.0092 43.2568 41.0178 43.2396 41.0264C43.0596 41.1172 42.8101 41.2232 42.5264 41.2909C42.0132 41.4132 41.4341 41.4039 40.9169 40.9989Z" stroke="black"/>
</svg>
